# xmcd CD database file
#
# Track frame offsets:
#	150
#	14688
#	26313
#	49003
#	63365
#	80430
#	109640
#	124493
#	149395
#	169720
#	181940
#	200575
#	224013
#	247830
#	270068
#
# Disc length: 3896 seconds
#
# Revision: 4
# Processed by: cddbd v1.5.2PL0 Copyright (c) Steve Scherf et al.
# Submitted via: jetAudio 7
#
DISCID=ce0f360f
DTITLE=The Blues Band - Homage
DYEAR=1993
DGENRE=Blues
TTITLE0=Let The Good Times Roll
TTITLE1=I Go Crazy
TTITLE2=Temperature/Fever (Medley)
TTITLE3=Rolling and Tumbling
TTITLE4=C. C. Rider
TTITLE5=How Can A Poor Man Stand Such Times And Live?
TTITLE6=Work Song
TTITLE7=Swamp Medley (a.Honest I Do b.Send Me Some Lovin c.Rainin' In 
TTITLE8=That Same Thing
TTITLE9=I Ain't Go You
TTITLE10=Fine Brown Fame
TTITLE11=I Can Tell
TTITLE12=You Shook Me
TTITLE13=Wang Dang Doodle
TTITLE14=Sweet Home Chicago
EXTD=Paul Jones: vocal, harmonicaDave Kelly: vocals, slide and rhythmgui
EXTD=tarGary Fletcher: vocals, bass guitarTim McGuinness: vocals, lea
EXTD=d rhythm guitarRob Townsend: drumsProduced by The Blues Band
EXTT0=(Moore/Sam Thread)Paul: lead vocal,Jools Holland: piano, org
EXTT1=(James Brown)Dave: lead vocalsPaul, Tom and Gary: backing voca
EXTT2=(Little Walter Jacobs/Cohen)Paul: lead vocalsFiona Hendley &
EXTT3=(Hambone Willie Newburn)Dave: lead vocalsPaul, Tom and Gary: b
EXTT4=(Trad.)Paul: lead vocalsFiona Hendley and Paul: backing vocals
EXTT5=(Blind Alfred Reed)	Dave: lead vocalsTom, Paul, Gary, The K
EXTT6=(Nat Adderley/Oscar Brown Junior)Paul: lead vocals
EXTT7=a) (J. Reed/Eg Ebner) Paul: lead vocalsb) (Price/Marascalco)
EXTT8=(Willie Dixon)Dave: lead vocalsLiz Kitchen: percussion
EXTT9=(Carter)Tom: lead vocalsDave: harmony vocalsBob Hall: pian
EXTT10=(Carterio/J. Mayo Williams)Paul: lead vocalsJools Holland: 
EXTT11=(W. Dixon)Dave: lead vocals and harmony vocalsTom: harmony vo
EXTT12=(W. Dixon)Dave: lead vocalsPeter Fillgul: piano, organ
EXTT13=(W. Dixon)Paul: vocalTom, Dave, Gary and Lari Myakicheff: bac
EXTT14=(Johnson)
PLAYORDER=
